<svg width="88" height="68" viewBox="0 0 88 68" fill="none" xmlns="http://www.w3.org/2000/svg">
<g opacity="0.3">
<path d="M80.1418 51.0428L75.5101 45.7033C78.8485 41.527 80.6674 36.3636 80.6674 30.9662C80.6674 17.9351 70.0658 7.33337 57.0345 7.33337C44.0033 7.33337 33.4017 17.9351 33.4017 30.9662C33.4017 31.8372 33.4506 32.6968 33.5428 33.5436C32.6886 33.4506 31.8285 33.4011 30.9668 33.4011C17.9357 33.4011 7.33402 44.0028 7.33402 57.0339C7.33402 62.4313 9.15289 67.5946 12.4913 71.771L7.85953 77.1105C7.30824 77.7461 7.17862 78.6449 7.52795 79.4103C7.87729 80.1756 8.64113 80.6667 9.48246 80.6667H30.9668C43.998 80.6667 54.5996 70.065 54.5996 57.0339C54.5996 56.1722 54.5501 55.3121 54.4571 54.4579C55.3039 54.5502 56.1636 54.599 57.0345 54.599H78.5189C79.3602 54.599 80.1242 54.1079 80.4734 53.3426C80.8228 52.5772 80.6931 51.6784 80.1418 51.0428ZM30.9668 76.3698H14.1903L16.9582 73.1791C17.6812 72.3457 17.6553 71.0999 16.8981 70.2972C13.5016 66.6957 11.6309 61.9853 11.6309 57.0339C11.6309 46.3721 20.305 37.698 30.9668 37.698C32.1462 37.698 33.3218 37.8054 34.4761 38.0171C36.7847 45.3875 42.6132 51.2161 49.9837 53.5246C50.1954 54.6789 50.3028 55.8545 50.3028 57.0339C50.3028 67.6959 41.6288 76.3698 30.9668 76.3698ZM57.0345 50.3021C46.3727 50.3021 37.6986 41.628 37.6986 30.9662C37.6986 20.3044 46.3727 11.6302 57.0345 11.6302C67.6964 11.6302 76.3705 20.3044 76.3705 30.9662C76.3705 35.9176 74.4998 40.628 71.1032 44.2295C70.3461 45.0322 70.3202 46.278 71.0432 47.1114L73.8111 50.3021H57.0345Z" fill="#515B6F" stroke="#515B6F" stroke-width="2"/>
<path d="M57.0352 45.5754C58.2217 45.5754 59.1836 44.6135 59.1836 43.427C59.1836 42.2405 58.2217 41.2786 57.0352 41.2786C55.8486 41.2786 54.8867 42.2405 54.8867 43.427C54.8867 44.6135 55.8486 45.5754 57.0352 45.5754Z" fill="#26A4FF" stroke="#26A4FF" stroke-width="0.668098"/>
<path d="M57.2044 16.2149C53.0351 16.1294 49.4485 19.1806 48.8723 23.3089C48.8196 23.6864 48.793 24.0722 48.793 24.4557C48.793 25.6422 49.7549 26.6042 50.9414 26.6042C52.1279 26.6042 53.0898 25.6422 53.0898 24.4557C53.0898 24.2701 53.1026 24.0839 53.1279 23.9027C53.3997 21.9554 55.0727 20.51 57.0371 20.51C57.064 20.51 57.0908 20.5103 57.1179 20.5109C59.1745 20.5523 60.8691 22.1916 60.9755 24.2429C61.0323 25.3384 60.6492 26.3783 59.8967 27.1709C59.1434 27.9643 58.1272 28.4013 57.0354 28.4013C55.8489 28.4013 54.8869 29.3632 54.8869 30.5497V36.9221C54.8869 38.1086 55.8489 39.0705 57.0354 39.0705C58.2219 39.0705 59.1838 38.1086 59.1838 36.9221V32.4104C60.6322 32.0171 61.9659 31.232 63.0126 30.1295C64.5847 28.4737 65.3851 26.3041 65.2665 24.0202C65.0439 19.73 61.5026 16.3015 57.2044 16.2149Z" fill="#26A4FF" stroke="#26A4FF" stroke-width="0.668098"/>
<path d="M38.1276 50.5889H23.8047C22.6182 50.5889 21.6562 51.5508 21.6562 52.7373C21.6562 53.9238 22.6182 54.8857 23.8047 54.8857H38.1276C39.3141 54.8857 40.276 53.9238 40.276 52.7373C40.276 51.5508 39.3141 50.5889 38.1276 50.5889Z" fill="#26A4FF" stroke="#26A4FF" stroke-width="0.668098"/>
<path d="M38.1276 59.1829H23.8047C22.6182 59.1829 21.6562 60.1448 21.6562 61.3313C21.6562 62.5178 22.6182 63.4797 23.8047 63.4797H38.1276C39.3141 63.4797 40.276 62.5178 40.276 61.3313C40.276 60.1448 39.3141 59.1829 38.1276 59.1829Z" fill="#26A4FF" stroke="#26A4FF" stroke-width="0.668098"/>
</g>
</svg>
