<svg width="88" height="68" viewBox="0 0 88 68" fill="none" xmlns="http://www.w3.org/2000/svg">
<g opacity="0.3">
<path fill-rule="evenodd" clip-rule="evenodd" d="M25.666 14.6667C24.6936 14.6667 23.7609 15.053 23.0733 15.7406C22.3857 16.4283 21.9993 17.3609 21.9993 18.3334V69.6667C21.9993 70.6392 22.3857 71.5718 23.0733 72.2594C23.7609 72.9471 24.6936 73.3334 25.666 73.3334H62.3327C63.3051 73.3334 64.2378 72.9471 64.9254 72.2594C65.613 71.5718 65.9993 70.6392 65.9993 69.6667L65.9993 34.5188L46.1476 14.6671L25.666 14.6667ZM17.8878 10.5552C19.9507 8.4923 22.7486 7.33337 25.666 7.33337H46.148C48.0926 7.33379 49.9582 8.10653 51.3331 9.48165M51.3331 9.48165L71.184 29.3326C71.1839 29.3325 71.1841 29.3327 71.184 29.3326C72.5591 30.7075 73.3323 32.5727 73.3327 34.5173V69.6667C73.3327 72.5841 72.1737 75.382 70.1108 77.4449C68.048 79.5078 65.2501 80.6667 62.3327 80.6667H25.666C22.7486 80.6667 19.9507 79.5078 17.8878 77.4449C15.8249 75.382 14.666 72.5841 14.666 69.6667V18.3334C14.666 15.416 15.8249 12.6181 17.8878 10.5552M29.3327 44C29.3327 41.975 30.9743 40.3334 32.9993 40.3334H54.9993C57.0244 40.3334 58.666 41.975 58.666 44C58.666 46.0251 57.0244 47.6667 54.9993 47.6667H32.9993C30.9743 47.6667 29.3327 46.0251 29.3327 44ZM29.3327 58.6667C29.3327 56.6417 30.9743 55 32.9993 55H54.9993C57.0244 55 58.666 56.6417 58.666 58.6667C58.666 60.6918 57.0244 62.3334 54.9993 62.3334H32.9993C30.9743 62.3334 29.3327 60.6918 29.3327 58.6667Z" fill="#515B6F"/>
<rect x="29.334" y="40.3339" width="29.3333" height="7.33333" rx="3.66667" fill="#26A4FF"/>
<rect x="29.334" y="54.9994" width="29.3333" height="7.33333" rx="3.66667" fill="#26A4FF"/>
</g>
</svg>
